<svg width="801" height="1350" viewBox="0 0 801 1350" fill="none" xmlns="http://www.w3.org/2000/svg">
<line y1="-12.5" x2="191.553" y2="-12.5" transform="matrix(-0.879 -0.476822 0.511559 -0.859248 862.163 161.122)" stroke="#A0CD00" stroke-opacity="0.7" stroke-width="25"/>
<line y1="-12.5" x2="286.178" y2="-12.5" transform="matrix(0.496798 -0.867866 0.887026 0.461719 567.309 327.79)" stroke="#A0CD00" stroke-opacity="0.7" stroke-width="25"/>
<line y1="-12.5" x2="257.128" y2="-12.5" transform="matrix(0.886623 0.462493 -0.497556 0.867432 556.437 322.072)" stroke="#A0CD00" stroke-opacity="0.7" stroke-width="25"/>
<line y1="-12.5" x2="181.658" y2="-12.5" transform="matrix(-0.88272 -0.4699 0.449002 -0.893531 616.635 232.181)" stroke="#A0CD00" stroke-opacity="0.7" stroke-width="25"/>
<line y1="-12.5" x2="286.178" y2="-12.5" transform="matrix(0.496798 -0.867866 0.887026 0.461719 329.803 404.825)" stroke="#A0CD00" stroke-opacity="0.7" stroke-width="25"/>
<line y1="-12.5" x2="257.128" y2="-12.5" transform="matrix(0.886623 0.462493 -0.497556 0.867432 318.931 399.107)" stroke="#A0CD00" stroke-opacity="0.7" stroke-width="25"/>
<line y1="-12.5" x2="130.139" y2="-12.5" transform="matrix(-0.876099 -0.482131 0.516733 -0.856146 826.958 188.619)" stroke="#A0CD00" stroke-opacity="0.7" stroke-width="25"/>
<line y1="-12.5" x2="130.139" y2="-12.5" transform="matrix(0.484096 -0.875015 -0.89365 -0.448765 768.951 377.236)" stroke="#A0CD00" stroke-opacity="0.7" stroke-width="25"/>
<line y1="-12.5" x2="195.373" y2="-12.5" transform="matrix(0.505945 -0.862566 0.882095 0.471072 629.788 304.039)" stroke="#A0CD00" stroke-opacity="0.7" stroke-width="25"/>
<line y1="-12.5" x2="195.373" y2="-12.5" transform="matrix(0.887945 0.459949 0.495064 -0.868856 622.703 279.509)" stroke="#A0CD00" stroke-opacity="0.7" stroke-width="25"/>
<line y1="-12.5" x2="130.139" y2="-12.5" transform="matrix(-0.876099 -0.482131 0.516733 -0.856146 589.452 265.653)" stroke="#A0CD00" stroke-opacity="0.7" stroke-width="25"/>
<line y1="-12.5" x2="130.139" y2="-12.5" transform="matrix(0.484096 -0.875015 -0.89365 -0.448765 531.445 454.271)" stroke="#A0CD00" stroke-opacity="0.7" stroke-width="25"/>
<line y1="-12.5" x2="195.373" y2="-12.5" transform="matrix(0.505945 -0.862566 0.882095 0.471072 392.283 381.073)" stroke="#A0CD00" stroke-opacity="0.7" stroke-width="25"/>
<line y1="-12.5" x2="195.373" y2="-12.5" transform="matrix(0.887945 0.459949 0.495064 -0.868856 385.198 356.543)" stroke="#A0CD00" stroke-opacity="0.7" stroke-width="25"/>
<rect x="5.10732" y="16.551" width="161.67" height="163.438" transform="matrix(0.893322 0.449417 -0.484736 0.87466 880.959 275.102)" stroke="#A0CD00" stroke-opacity="0.7" stroke-width="25"/>
<rect x="5.10732" y="16.551" width="80.2522" height="83.5906" transform="matrix(0.893322 0.449417 -0.484736 0.87466 729.155 189.61)" stroke="#A0CD00" stroke-opacity="0.7" stroke-width="25"/>
<rect x="1.93791" y="6.28007" width="9.48595" height="9.70599" transform="matrix(0.893322 0.449418 -0.484736 0.87466 741.049 247.718)" stroke="#A0CD00" stroke-opacity="0.7" stroke-width="9.48595"/>
<rect x="5.10732" y="16.551" width="161.67" height="163.438" transform="matrix(0.893322 0.449417 -0.484736 0.87466 643.453 352.137)" stroke="#A0CD00" stroke-opacity="0.7" stroke-width="25"/>
<rect x="5.10732" y="16.551" width="80.2522" height="83.5906" transform="matrix(0.893322 0.449417 -0.484736 0.87466 663.042 407.141)" stroke="#A0CD00" stroke-opacity="0.7" stroke-width="25"/>
<rect x="5.10732" y="16.551" width="80.2522" height="83.5906" transform="matrix(0.893322 0.449417 -0.484736 0.87466 491.65 266.644)" stroke="#A0CD00" stroke-opacity="0.7" stroke-width="25"/>
<rect x="1.59694" y="5.17509" width="8.48256" height="7.81689" transform="matrix(0.893322 0.449418 -0.484735 0.874661 673.408 464.655)" stroke="#A0CD00" stroke-opacity="0.7" stroke-width="7.81689"/>
<rect x="1.93791" y="6.28007" width="9.48595" height="9.70599" transform="matrix(0.893322 0.449418 -0.484736 0.87466 503.543 324.752)" stroke="#A0CD00" stroke-opacity="0.7" stroke-width="9.48595"/>
<line y1="-12.5" x2="191.553" y2="-12.5" transform="matrix(-0.879 -0.476822 0.511559 -0.859248 970.163 515.122)" stroke="#A0CD00" stroke-opacity="0.7" stroke-width="25"/>
<line y1="-12.5" x2="286.178" y2="-12.5" transform="matrix(0.496798 -0.867866 0.887026 0.461719 675.309 681.791)" stroke="#A0CD00" stroke-opacity="0.7" stroke-width="25"/>
<line y1="-12.5" x2="257.128" y2="-12.5" transform="matrix(0.886623 0.462493 -0.497556 0.867432 664.437 676.072)" stroke="#A0CD00" stroke-opacity="0.7" stroke-width="25"/>
<line y1="-12.5" x2="181.658" y2="-12.5" transform="matrix(-0.88272 -0.4699 0.449002 -0.893531 724.635 586.181)" stroke="#A0CD00" stroke-opacity="0.7" stroke-width="25"/>
<line y1="-12.5" x2="286.178" y2="-12.5" transform="matrix(0.496798 -0.867866 0.887026 0.461719 437.803 758.825)" stroke="#A0CD00" stroke-opacity="0.7" stroke-width="25"/>
<line y1="-12.5" x2="257.128" y2="-12.5" transform="matrix(0.886623 0.462493 -0.497556 0.867432 426.931 753.107)" stroke="#A0CD00" stroke-opacity="0.7" stroke-width="25"/>
<line y1="-12.5" x2="195.373" y2="-12.5" transform="matrix(0.505945 -0.862566 0.882095 0.471072 737.788 658.039)" stroke="#A0CD00" stroke-opacity="0.7" stroke-width="25"/>
<line y1="-12.5" x2="195.373" y2="-12.5" transform="matrix(0.887945 0.459949 0.495064 -0.868856 730.703 633.509)" stroke="#A0CD00" stroke-opacity="0.7" stroke-width="25"/>
<line y1="-12.5" x2="130.139" y2="-12.5" transform="matrix(-0.876099 -0.482131 0.516733 -0.856146 697.452 619.654)" stroke="#A0CD00" stroke-opacity="0.7" stroke-width="25"/>
<line y1="-12.5" x2="130.139" y2="-12.5" transform="matrix(0.484096 -0.875015 -0.89365 -0.448765 639.445 808.271)" stroke="#A0CD00" stroke-opacity="0.7" stroke-width="25"/>
<line y1="-12.5" x2="195.373" y2="-12.5" transform="matrix(0.505945 -0.862566 0.882095 0.471072 500.283 735.073)" stroke="#A0CD00" stroke-opacity="0.7" stroke-width="25"/>
<line y1="-12.5" x2="195.373" y2="-12.5" transform="matrix(0.887945 0.459949 0.495064 -0.868856 493.198 710.543)" stroke="#A0CD00" stroke-opacity="0.7" stroke-width="25"/>
<rect x="5.10732" y="16.551" width="80.2522" height="83.5906" transform="matrix(0.893322 0.449417 -0.484736 0.87466 837.155 543.61)" stroke="#A0CD00" stroke-opacity="0.7" stroke-width="25"/>
<rect x="5.10732" y="16.551" width="161.67" height="163.438" transform="matrix(0.893322 0.449417 -0.484736 0.87466 751.453 706.137)" stroke="#A0CD00" stroke-opacity="0.7" stroke-width="25"/>
<rect x="5.10732" y="16.551" width="80.2522" height="83.5906" transform="matrix(0.893322 0.449417 -0.484736 0.87466 771.042 761.141)" stroke="#A0CD00" stroke-opacity="0.7" stroke-width="25"/>
<rect x="5.10732" y="16.551" width="80.2522" height="83.5906" transform="matrix(0.893322 0.449417 -0.484736 0.87466 599.65 620.644)" stroke="#A0CD00" stroke-opacity="0.7" stroke-width="25"/>
<rect x="1.59694" y="5.17509" width="8.48256" height="7.81689" transform="matrix(0.893322 0.449418 -0.484735 0.874661 781.408 818.655)" stroke="#A0CD00" stroke-opacity="0.7" stroke-width="7.81689"/>
<rect x="1.93791" y="6.28007" width="9.48595" height="9.70599" transform="matrix(0.893322 0.449418 -0.484736 0.87466 611.543 678.752)" stroke="#A0CD00" stroke-opacity="0.7" stroke-width="9.48595"/>
<line y1="-12.5" x2="191.553" y2="-12.5" transform="matrix(-0.879 -0.476822 0.511559 -0.859248 602.163 821.122)" stroke="#A0CD00" stroke-opacity="0.7" stroke-width="25"/>
<line y1="-12.5" x2="286.178" y2="-12.5" transform="matrix(0.496798 -0.867866 0.887026 0.461719 307.309 987.791)" stroke="#A0CD00" stroke-opacity="0.7" stroke-width="25"/>
<line y1="-12.5" x2="257.128" y2="-12.5" transform="matrix(0.886623 0.462493 -0.497556 0.867432 296.437 982.072)" stroke="#A0CD00" stroke-opacity="0.7" stroke-width="25"/>
<line y1="-12.5" x2="181.658" y2="-12.5" transform="matrix(-0.88272 -0.4699 0.449002 -0.893531 356.635 892.181)" stroke="#A0CD00" stroke-opacity="0.7" stroke-width="25"/>
<line y1="-12.5" x2="286.178" y2="-12.5" transform="matrix(0.496798 -0.867866 0.887026 0.461719 69.8032 1064.83)" stroke="#A0CD00" stroke-opacity="0.7" stroke-width="25"/>
<line y1="-12.5" x2="257.128" y2="-12.5" transform="matrix(0.886623 0.462493 -0.497556 0.867432 58.9312 1059.11)" stroke="#A0CD00" stroke-opacity="0.7" stroke-width="25"/>
<line y1="-12.5" x2="130.139" y2="-12.5" transform="matrix(-0.876099 -0.482131 0.516733 -0.856146 566.958 848.619)" stroke="#A0CD00" stroke-opacity="0.7" stroke-width="25"/>
<line y1="-12.5" x2="130.139" y2="-12.5" transform="matrix(0.484096 -0.875015 -0.89365 -0.448765 508.951 1037.24)" stroke="#A0CD00" stroke-opacity="0.7" stroke-width="25"/>
<line y1="-12.5" x2="195.373" y2="-12.5" transform="matrix(0.505945 -0.862566 0.882095 0.471072 369.788 964.039)" stroke="#A0CD00" stroke-opacity="0.7" stroke-width="25"/>
<line y1="-12.5" x2="195.373" y2="-12.5" transform="matrix(0.887945 0.459949 0.495064 -0.868856 362.703 939.509)" stroke="#A0CD00" stroke-opacity="0.7" stroke-width="25"/>
<line y1="-12.5" x2="130.139" y2="-12.5" transform="matrix(-0.876099 -0.482131 0.516733 -0.856146 329.452 925.654)" stroke="#A0CD00" stroke-opacity="0.7" stroke-width="25"/>
<line y1="-12.5" x2="130.139" y2="-12.5" transform="matrix(0.484096 -0.875015 -0.89365 -0.448765 271.445 1114.27)" stroke="#A0CD00" stroke-opacity="0.7" stroke-width="25"/>
<line y1="-12.5" x2="195.373" y2="-12.5" transform="matrix(0.505945 -0.862566 0.882095 0.471072 132.283 1041.07)" stroke="#A0CD00" stroke-opacity="0.7" stroke-width="25"/>
<line y1="-12.5" x2="195.373" y2="-12.5" transform="matrix(0.887945 0.459949 0.495064 -0.868856 125.197 1016.54)" stroke="#A0CD00" stroke-opacity="0.7" stroke-width="25"/>
<rect x="5.10732" y="16.551" width="161.67" height="163.438" transform="matrix(0.893322 0.449417 -0.484736 0.87466 620.959 935.102)" stroke="#A0CD00" stroke-opacity="0.7" stroke-width="25"/>
<rect x="5.10732" y="16.551" width="80.2522" height="83.5906" transform="matrix(0.893322 0.449417 -0.484736 0.87466 640.547 990.106)" stroke="#A0CD00" stroke-opacity="0.7" stroke-width="25"/>
<rect x="5.10732" y="16.551" width="80.2522" height="83.5906" transform="matrix(0.893322 0.449417 -0.484736 0.87466 469.155 849.61)" stroke="#A0CD00" stroke-opacity="0.7" stroke-width="25"/>
<rect x="1.59694" y="5.17509" width="8.48256" height="7.81689" transform="matrix(0.893322 0.449418 -0.484735 0.874661 650.914 1047.62)" stroke="#A0CD00" stroke-opacity="0.7" stroke-width="7.81689"/>
<rect x="1.93791" y="6.28007" width="9.48595" height="9.70599" transform="matrix(0.893322 0.449418 -0.484736 0.87466 481.049 907.718)" stroke="#A0CD00" stroke-opacity="0.7" stroke-width="9.48595"/>
<rect x="5.10732" y="16.551" width="161.67" height="163.438" transform="matrix(0.893322 0.449417 -0.484736 0.87466 383.453 1012.14)" stroke="#A0CD00" stroke-opacity="0.7" stroke-width="25"/>
<rect x="5.10732" y="16.551" width="80.2522" height="83.5906" transform="matrix(0.893322 0.449417 -0.484736 0.87466 403.042 1067.14)" stroke="#A0CD00" stroke-opacity="0.7" stroke-width="25"/>
<rect x="5.10732" y="16.551" width="80.2522" height="83.5906" transform="matrix(0.893322 0.449417 -0.484736 0.87466 231.65 926.644)" stroke="#A0CD00" stroke-opacity="0.7" stroke-width="25"/>
<rect x="1.59694" y="5.17509" width="8.48256" height="7.81689" transform="matrix(0.893322 0.449418 -0.484735 0.874661 413.408 1124.66)" stroke="#A0CD00" stroke-opacity="0.7" stroke-width="7.81689"/>
<rect x="1.93791" y="6.28007" width="9.48595" height="9.70599" transform="matrix(0.893322 0.449418 -0.484736 0.87466 243.543 984.752)" stroke="#A0CD00" stroke-opacity="0.7" stroke-width="9.48595"/>
</svg>
