<svg width="551" height="690" viewBox="0 0 551 690" fill="none" xmlns="http://www.w3.org/2000/svg">
<line y1="-12.5" x2="191.553" y2="-12.5" transform="matrix(-0.879 -0.476822 0.511559 -0.859248 602.163 161.122)" stroke="#0A0A0A" stroke-width="25"/>
<line y1="-12.5" x2="286.178" y2="-12.5" transform="matrix(0.496798 -0.867866 0.887026 0.461719 307.309 327.79)" stroke="#0A0A0A" stroke-width="25"/>
<line y1="-12.5" x2="257.128" y2="-12.5" transform="matrix(0.886623 0.462493 -0.497556 0.867432 296.437 322.072)" stroke="#0A0A0A" stroke-width="25"/>
<line y1="-12.5" x2="181.658" y2="-12.5" transform="matrix(-0.88272 -0.4699 0.449002 -0.893531 356.635 232.181)" stroke="#0A0A0A" stroke-width="25"/>
<line y1="-12.5" x2="286.178" y2="-12.5" transform="matrix(0.496798 -0.867866 0.887026 0.461719 69.8032 404.825)" stroke="#0A0A0A" stroke-width="25"/>
<line y1="-12.5" x2="257.128" y2="-12.5" transform="matrix(0.886623 0.462493 -0.497556 0.867432 58.9312 399.107)" stroke="#0A0A0A" stroke-width="25"/>
<line y1="-12.5" x2="130.139" y2="-12.5" transform="matrix(-0.876099 -0.482131 0.516733 -0.856146 566.958 188.619)" stroke="#0A0A0A" stroke-width="25"/>
<line y1="-12.5" x2="130.139" y2="-12.5" transform="matrix(0.484096 -0.875015 -0.89365 -0.448765 508.951 377.236)" stroke="#0A0A0A" stroke-width="25"/>
<line y1="-12.5" x2="195.373" y2="-12.5" transform="matrix(0.505945 -0.862566 0.882095 0.471072 369.788 304.039)" stroke="#0A0A0A" stroke-width="25"/>
<line y1="-12.5" x2="195.373" y2="-12.5" transform="matrix(0.887945 0.459949 0.495064 -0.868856 362.703 279.509)" stroke="#0A0A0A" stroke-width="25"/>
<line y1="-12.5" x2="130.139" y2="-12.5" transform="matrix(-0.876099 -0.482131 0.516733 -0.856146 329.452 265.653)" stroke="#0A0A0A" stroke-width="25"/>
<line y1="-12.5" x2="130.139" y2="-12.5" transform="matrix(0.484096 -0.875015 -0.89365 -0.448765 271.445 454.271)" stroke="#0A0A0A" stroke-width="25"/>
<line y1="-12.5" x2="195.373" y2="-12.5" transform="matrix(0.505945 -0.862566 0.882095 0.471072 132.283 381.073)" stroke="#0A0A0A" stroke-width="25"/>
<line y1="-12.5" x2="195.373" y2="-12.5" transform="matrix(0.887945 0.459949 0.495064 -0.868856 125.198 356.543)" stroke="#0A0A0A" stroke-width="25"/>
<rect x="5.10732" y="16.551" width="161.67" height="163.438" transform="matrix(0.893322 0.449417 -0.484736 0.87466 620.959 275.102)" stroke="#0A0A0A" stroke-width="25"/>
<rect x="5.10732" y="16.551" width="80.2522" height="83.5906" transform="matrix(0.893322 0.449417 -0.484736 0.87466 469.155 189.61)" stroke="#0A0A0A" stroke-width="25"/>
<rect x="1.93791" y="6.28007" width="9.48595" height="9.70599" transform="matrix(0.893322 0.449418 -0.484736 0.87466 481.049 247.718)" stroke="#0A0A0A" stroke-width="9.48595"/>
<rect x="5.10732" y="16.551" width="161.67" height="163.438" transform="matrix(0.893322 0.449417 -0.484736 0.87466 383.453 352.137)" stroke="#0A0A0A" stroke-width="25"/>
<rect x="5.10732" y="16.551" width="80.2522" height="83.5906" transform="matrix(0.893322 0.449417 -0.484736 0.87466 403.042 407.141)" stroke="#0A0A0A" stroke-width="25"/>
<rect x="5.10732" y="16.551" width="80.2522" height="83.5906" transform="matrix(0.893322 0.449417 -0.484736 0.87466 231.65 266.644)" stroke="#0A0A0A" stroke-width="25"/>
<rect x="1.59694" y="5.17509" width="8.48256" height="7.81689" transform="matrix(0.893322 0.449418 -0.484735 0.874661 413.408 464.655)" stroke="#0A0A0A" stroke-width="7.81689"/>
<rect x="1.93791" y="6.28007" width="9.48595" height="9.70599" transform="matrix(0.893322 0.449418 -0.484736 0.87466 243.543 324.752)" stroke="#0A0A0A" stroke-width="9.48595"/>
</svg>
