<svg width="1691" height="2054" viewBox="0 0 1691 2054" fill="none" xmlns="http://www.w3.org/2000/svg">
<g opacity="0.7">
<rect x="0.495363" y="27.3681" width="263.406" height="266.019" transform="matrix(0.741451 0.671007 -0.716682 0.6974 651.887 425.764)" stroke="#122864" stroke-width="40"/>
<rect x="0.495362" y="27.3681" width="131.073" height="136.349" transform="matrix(0.741451 0.671008 -0.716682 0.6974 657.729 519.283)" stroke="#122864" stroke-width="40"/>
<rect x="0.157209" y="8.68558" width="13.798" height="12.6944" transform="matrix(0.741451 0.671008 -0.716682 0.6974 643.757 609.528)" stroke="#122864" stroke-width="12.6944"/>
<rect x="0.495363" y="27.3681" width="263.406" height="266.019" transform="matrix(0.741451 0.671007 -0.716682 0.6974 651.887 1039.98)" stroke="#122864" stroke-width="40"/>
<rect x="0.495362" y="27.3681" width="131.073" height="136.349" transform="matrix(0.741451 0.671007 -0.716683 0.6974 657.729 1133.5)" stroke="#122864" stroke-width="40"/>
<rect x="0.157209" y="8.68557" width="13.798" height="12.6944" transform="matrix(0.741451 0.671007 -0.716683 0.697399 643.757 1223.74)" stroke="#122864" stroke-width="12.6944"/>
<rect x="0.495363" y="27.3681" width="263.406" height="266.019" transform="matrix(0.741451 0.671007 -0.716682 0.6974 658.833 1641.24)" stroke="#122864" stroke-width="40"/>
<rect x="0.495363" y="27.3681" width="131.073" height="136.349" transform="matrix(0.741451 0.671008 -0.716682 0.6974 664.675 1734.76)" stroke="#122864" stroke-width="40"/>
<rect x="0.157209" y="8.68559" width="13.7981" height="12.6944" transform="matrix(0.74145 0.671008 -0.716682 0.6974 650.703 1825.01)" stroke="#122864" stroke-width="12.6944"/>
<rect x="0.495363" y="27.3681" width="263.406" height="266.019" transform="matrix(0.741451 0.671007 -0.716682 0.6974 239.061 429.464)" stroke="#122864" stroke-width="40"/>
<rect x="0.495362" y="27.3681" width="131.073" height="136.349" transform="matrix(0.741451 0.671008 -0.716682 0.6974 244.902 522.983)" stroke="#122864" stroke-width="40"/>
<rect x="0.157209" y="8.68558" width="13.798" height="12.6944" transform="matrix(0.741451 0.671007 -0.716683 0.697399 230.93 613.228)" stroke="#122864" stroke-width="12.6944"/>
<rect x="0.495363" y="27.3681" width="263.406" height="266.019" transform="matrix(0.741451 0.671007 -0.716682 0.6974 239.061 1043.68)" stroke="#122864" stroke-width="40"/>
<rect x="0.495363" y="27.3681" width="131.073" height="136.349" transform="matrix(0.74145 0.671008 -0.716682 0.6974 244.902 1137.2)" stroke="#122864" stroke-width="40"/>
<rect x="0.157209" y="8.6856" width="13.7981" height="12.6945" transform="matrix(0.74145 0.671008 -0.716682 0.6974 230.93 1227.44)" stroke="#122864" stroke-width="12.6945"/>
<rect x="0.495363" y="27.3681" width="263.406" height="266.019" transform="matrix(0.741451 0.671007 -0.716682 0.6974 246.007 1644.94)" stroke="#122864" stroke-width="40"/>
<rect x="0.495363" y="27.3681" width="131.073" height="136.349" transform="matrix(0.74145 0.671008 -0.716682 0.6974 251.849 1738.46)" stroke="#122864" stroke-width="40"/>
<rect x="0.157209" y="8.6856" width="13.7981" height="12.6945" transform="matrix(0.74145 0.671008 -0.716682 0.6974 237.877 1828.71)" stroke="#122864" stroke-width="12.6945"/>
<rect x="0.495362" y="27.3681" width="263.406" height="266.019" transform="matrix(0.741451 0.671008 -0.716682 0.6974 1065.02 421.022)" stroke="#122864" stroke-width="40"/>
<rect x="0.495363" y="27.3681" width="131.073" height="136.349" transform="matrix(0.741451 0.671007 -0.716682 0.6974 1070.86 514.541)" stroke="#122864" stroke-width="40"/>
<rect x="0.495363" y="27.3681" width="131.073" height="136.349" transform="matrix(0.741451 0.671008 -0.716682 0.6974 864.386 221.626)" stroke="#122864" stroke-width="40"/>
<rect x="0.157209" y="8.68558" width="13.798" height="12.6944" transform="matrix(0.741451 0.671008 -0.716682 0.6974 1056.89 604.785)" stroke="#122864" stroke-width="12.6944"/>
<rect x="0.190939" y="10.5491" width="15.4181" height="15.7492" transform="matrix(0.741451 0.671007 -0.716683 0.697399 852.989 313.775)" stroke="#122864" stroke-width="15.4181"/>
<rect x="0.495363" y="27.3681" width="263.406" height="266.019" transform="matrix(0.741451 0.671007 -0.716682 0.6974 1065.02 1035.24)" stroke="#122864" stroke-width="40"/>
<rect x="0.495363" y="27.3681" width="131.073" height="136.349" transform="matrix(0.741451 0.671008 -0.716682 0.6974 1070.86 1128.76)" stroke="#122864" stroke-width="40"/>
<rect x="0.495362" y="27.3681" width="131.073" height="136.349" transform="matrix(0.74145 0.671008 -0.716682 0.6974 864.386 835.841)" stroke="#122864" stroke-width="40"/>
<rect x="0.157209" y="8.68559" width="13.7981" height="12.6944" transform="matrix(0.74145 0.671008 -0.716682 0.6974 1056.89 1219)" stroke="#122864" stroke-width="12.6944"/>
<rect x="0.190939" y="10.5491" width="15.4181" height="15.7492" transform="matrix(0.741451 0.671007 -0.716683 0.697399 852.989 927.99)" stroke="#122864" stroke-width="15.4181"/>
<rect x="0.495363" y="27.3681" width="263.406" height="266.019" transform="matrix(0.741451 0.671007 -0.716682 0.6974 1071.96 1636.5)" stroke="#122864" stroke-width="40"/>
<rect x="0.495362" y="27.3681" width="131.073" height="136.349" transform="matrix(0.741451 0.671007 -0.716682 0.6974 1077.8 1730.02)" stroke="#122864" stroke-width="40"/>
<rect x="0.495362" y="27.3681" width="131.073" height="136.349" transform="matrix(0.741451 0.671007 -0.716683 0.6974 871.333 1437.11)" stroke="#122864" stroke-width="40"/>
<rect x="0.157209" y="8.68559" width="13.7981" height="12.6944" transform="matrix(0.74145 0.671008 -0.716682 0.6974 1063.83 1820.27)" stroke="#122864" stroke-width="12.6944"/>
<rect x="0.190939" y="10.5491" width="15.4181" height="15.7492" transform="matrix(0.741451 0.671007 -0.716683 0.697399 859.935 1529.25)" stroke="#122864" stroke-width="15.4181"/>
<rect x="0.495363" y="27.3681" width="263.406" height="266.019" transform="matrix(0.741451 0.671007 -0.716682 0.6974 652.19 424.722)" stroke="#122864" stroke-width="40"/>
<rect x="0.495362" y="27.3681" width="131.073" height="136.349" transform="matrix(0.741451 0.671007 -0.716682 0.6974 658.032 518.241)" stroke="#122864" stroke-width="40"/>
<rect x="0.495363" y="27.3681" width="131.073" height="136.349" transform="matrix(0.741451 0.671007 -0.716682 0.6974 451.56 225.326)" stroke="#122864" stroke-width="40"/>
<rect x="0.157209" y="8.68558" width="13.7981" height="12.6944" transform="matrix(0.741451 0.671007 -0.716683 0.697399 644.06 608.486)" stroke="#122864" stroke-width="12.6944"/>
<rect x="0.190939" y="10.5491" width="15.4181" height="15.7492" transform="matrix(0.74145 0.671008 -0.716682 0.6974 440.162 317.475)" stroke="#122864" stroke-width="15.4181"/>
<rect x="0.495362" y="27.3681" width="263.406" height="266.019" transform="matrix(0.74145 0.671008 -0.716682 0.6974 652.19 1038.94)" stroke="#122864" stroke-width="40"/>
<rect x="0.495363" y="27.3681" width="131.073" height="136.349" transform="matrix(0.74145 0.671008 -0.716682 0.6974 658.032 1132.46)" stroke="#122864" stroke-width="40"/>
<rect x="0.495363" y="27.3681" width="131.073" height="136.349" transform="matrix(0.741451 0.671007 -0.716682 0.6974 451.56 839.542)" stroke="#122864" stroke-width="40"/>
<rect x="0.157209" y="8.68559" width="13.7981" height="12.6945" transform="matrix(0.74145 0.671008 -0.716682 0.6974 644.06 1222.7)" stroke="#122864" stroke-width="12.6945"/>
<rect x="0.190939" y="10.5491" width="15.4181" height="15.7492" transform="matrix(0.74145 0.671008 -0.716682 0.6974 440.162 931.69)" stroke="#122864" stroke-width="15.4181"/>
<rect x="0.495363" y="27.3681" width="263.406" height="266.019" transform="matrix(0.741451 0.671007 -0.716682 0.6974 659.136 1640.2)" stroke="#122864" stroke-width="40"/>
<rect x="0.495362" y="27.3681" width="131.073" height="136.349" transform="matrix(0.74145 0.671008 -0.716682 0.6974 664.978 1733.72)" stroke="#122864" stroke-width="40"/>
<rect x="0.495362" y="27.3681" width="131.073" height="136.349" transform="matrix(0.741451 0.671007 -0.716683 0.6974 458.507 1440.81)" stroke="#122864" stroke-width="40"/>
<rect x="0.157209" y="8.68559" width="13.7981" height="12.6945" transform="matrix(0.74145 0.671008 -0.716682 0.6974 651.006 1823.97)" stroke="#122864" stroke-width="12.6945"/>
<rect x="0.190939" y="10.5491" width="15.4181" height="15.7492" transform="matrix(0.741451 0.671007 -0.716683 0.697399 447.109 1532.95)" stroke="#122864" stroke-width="15.4181"/>
<line y1="-20" x2="211.338" y2="-20" transform="matrix(-0.716172 -0.697924 0.741939 -0.670467 1000.59 262.843)" stroke="#122864" stroke-width="40"/>
<line y1="-20" x2="211.338" y2="-20" transform="matrix(0.716172 -0.697924 -0.741939 -0.670467 823.042 527.793)" stroke="#122864" stroke-width="40"/>
<line y1="-20" x2="317.464" y2="-20" transform="matrix(0.733479 -0.679712 0.724889 0.688866 636.759 352.981)" stroke="#122864" stroke-width="40"/>
<line y1="-20" x2="317.464" y2="-20" transform="matrix(0.733479 0.679712 0.724889 -0.688866 636.759 312.009)" stroke="#122864" stroke-width="40"/>
<line y1="-20" x2="211.338" y2="-20" transform="matrix(-0.716172 -0.697924 0.741939 -0.670468 1000.59 877.058)" stroke="#122864" stroke-width="40"/>
<line y1="-20" x2="211.338" y2="-20" transform="matrix(0.716172 -0.697923 -0.741939 -0.670467 823.042 1142.01)" stroke="#122864" stroke-width="40"/>
<line y1="-20" x2="317.464" y2="-20" transform="matrix(0.733479 -0.679712 0.724889 0.688866 636.759 967.196)" stroke="#122864" stroke-width="40"/>
<line y1="-20" x2="317.464" y2="-20" transform="matrix(0.733479 0.679712 0.724889 -0.688866 636.759 926.224)" stroke="#122864" stroke-width="40"/>
<line y1="-20" x2="211.338" y2="-20" transform="matrix(-0.716172 -0.697924 0.741939 -0.670468 1007.54 1478.32)" stroke="#122864" stroke-width="40"/>
<line y1="-20" x2="211.338" y2="-20" transform="matrix(0.716172 -0.697924 -0.741939 -0.670468 829.989 1743.27)" stroke="#122864" stroke-width="40"/>
<line y1="-20" x2="317.464" y2="-20" transform="matrix(0.733479 -0.679712 0.724889 0.688866 643.706 1568.46)" stroke="#122864" stroke-width="40"/>
<line y1="-20" x2="317.464" y2="-20" transform="matrix(0.733479 0.679712 0.724889 -0.688866 643.706 1527.49)" stroke="#122864" stroke-width="40"/>
<line y1="-20" x2="211.338" y2="-20" transform="matrix(-0.716172 -0.697924 0.741939 -0.670468 587.766 266.543)" stroke="#122864" stroke-width="40"/>
<line y1="-20" x2="211.338" y2="-20" transform="matrix(0.716172 -0.697924 -0.741939 -0.670468 410.216 531.493)" stroke="#122864" stroke-width="40"/>
<line y1="-20" x2="317.464" y2="-20" transform="matrix(0.733479 -0.679712 0.724889 0.688866 223.933 356.681)" stroke="#122864" stroke-width="40"/>
<line y1="-20" x2="317.464" y2="-20" transform="matrix(0.733479 0.679712 0.724889 -0.688866 223.933 315.709)" stroke="#122864" stroke-width="40"/>
<line y1="-20" x2="211.338" y2="-20" transform="matrix(-0.716172 -0.697924 0.741939 -0.670467 587.766 880.758)" stroke="#122864" stroke-width="40"/>
<line y1="-20" x2="211.338" y2="-20" transform="matrix(0.716172 -0.697924 -0.741939 -0.670468 410.216 1145.71)" stroke="#122864" stroke-width="40"/>
<line y1="-20" x2="317.464" y2="-20" transform="matrix(0.733479 -0.679712 0.724889 0.688866 223.933 970.896)" stroke="#122864" stroke-width="40"/>
<line y1="-20" x2="317.464" y2="-20" transform="matrix(0.733479 0.679712 0.724889 -0.688866 223.933 929.924)" stroke="#122864" stroke-width="40"/>
<line y1="-20" x2="211.338" y2="-20" transform="matrix(-0.716172 -0.697924 0.741939 -0.670467 594.713 1482.02)" stroke="#122864" stroke-width="40"/>
<line y1="-20" x2="211.338" y2="-20" transform="matrix(0.716172 -0.697924 -0.741939 -0.670468 417.162 1746.97)" stroke="#122864" stroke-width="40"/>
<line y1="-20" x2="317.464" y2="-20" transform="matrix(0.733479 -0.679712 0.724889 0.688866 230.88 1572.16)" stroke="#122864" stroke-width="40"/>
<line y1="-20" x2="317.464" y2="-20" transform="matrix(0.733479 0.679712 0.724889 -0.688866 230.88 1531.19)" stroke="#122864" stroke-width="40"/>
<line y1="-20" x2="311.116" y2="-20" transform="matrix(-0.720379 -0.693581 0.737888 -0.674923 1073.36 227.334)" stroke="#122864" stroke-width="40"/>
<line y1="-20" x2="464.898" y2="-20" transform="matrix(0.726262 -0.687418 0.732124 0.681172 531.975 352.981)" stroke="#122864" stroke-width="40"/>
<line y1="-20" x2="417.782" y2="-20" transform="matrix(0.731529 0.68181 -0.726861 0.686784 517.422 339.323)" stroke="#122864" stroke-width="40"/>
<line y1="-20" x2="311.116" y2="-20" transform="matrix(-0.720379 -0.693581 0.737888 -0.674923 1073.36 841.549)" stroke="#122864" stroke-width="40"/>
<line y1="-20" x2="464.898" y2="-20" transform="matrix(0.726262 -0.687418 0.732124 0.681172 531.975 967.196)" stroke="#122864" stroke-width="40"/>
<line y1="-20" x2="417.782" y2="-20" transform="matrix(0.73153 0.68181 -0.726862 0.686784 517.422 953.539)" stroke="#122864" stroke-width="40"/>
<line y1="-20" x2="311.116" y2="-20" transform="matrix(-0.720379 -0.693581 0.737888 -0.674923 1080.31 1442.81)" stroke="#122864" stroke-width="40"/>
<line y1="-20" x2="464.898" y2="-20" transform="matrix(0.726262 -0.687418 0.732124 0.681172 538.922 1568.46)" stroke="#122864" stroke-width="40"/>
<line y1="-20" x2="417.782" y2="-20" transform="matrix(0.73153 0.68181 -0.726862 0.686784 524.369 1554.8)" stroke="#122864" stroke-width="40"/>
<line y1="-20" x2="311.116" y2="-20" transform="matrix(-0.720379 -0.693581 0.737888 -0.674923 660.533 231.034)" stroke="#122864" stroke-width="40"/>
<line y1="-20" x2="464.898" y2="-20" transform="matrix(0.726262 -0.687418 0.732124 0.681172 119.149 356.681)" stroke="#122864" stroke-width="40"/>
<line y1="-20" x2="417.782" y2="-20" transform="matrix(0.731529 0.68181 -0.726861 0.686784 104.596 343.024)" stroke="#122864" stroke-width="40"/>
<line y1="-20" x2="311.116" y2="-20" transform="matrix(-0.720379 -0.693581 0.737888 -0.674923 660.533 845.25)" stroke="#122864" stroke-width="40"/>
<line y1="-20" x2="464.898" y2="-20" transform="matrix(0.726262 -0.687418 0.732124 0.681172 119.149 970.896)" stroke="#122864" stroke-width="40"/>
<line y1="-20" x2="417.782" y2="-20" transform="matrix(0.731529 0.68181 -0.726861 0.686784 104.596 957.239)" stroke="#122864" stroke-width="40"/>
<line y1="-20" x2="311.116" y2="-20" transform="matrix(-0.720379 -0.693581 0.737888 -0.674923 667.48 1446.51)" stroke="#122864" stroke-width="40"/>
<line y1="-20" x2="464.898" y2="-20" transform="matrix(0.726262 -0.687418 0.732124 0.681172 126.096 1572.16)" stroke="#122864" stroke-width="40"/>
<line y1="-20" x2="417.782" y2="-20" transform="matrix(0.731529 0.68181 -0.726861 0.686784 111.542 1558.5)" stroke="#122864" stroke-width="40"/>
<rect x="0.495363" y="27.3681" width="263.406" height="266.019" transform="matrix(0.741451 0.671008 -0.716682 0.6974 1065.71 420.214)" stroke="#122864" stroke-width="40"/>
<rect x="0.495363" y="27.3681" width="131.073" height="136.349" transform="matrix(0.741451 0.671007 -0.716682 0.6974 1071.55 513.733)" stroke="#122864" stroke-width="40"/>
<rect x="0.157209" y="8.68558" width="13.798" height="12.6944" transform="matrix(0.741451 0.671008 -0.716682 0.6974 1057.58 603.978)" stroke="#122864" stroke-width="12.6944"/>
<rect x="0.495363" y="27.3681" width="263.406" height="266.019" transform="matrix(0.741451 0.671007 -0.716682 0.6974 1065.71 1034.43)" stroke="#122864" stroke-width="40"/>
<rect x="0.495363" y="27.3681" width="131.073" height="136.349" transform="matrix(0.741451 0.671008 -0.716682 0.6974 1071.55 1127.95)" stroke="#122864" stroke-width="40"/>
<rect x="0.157209" y="8.68559" width="13.7981" height="12.6944" transform="matrix(0.74145 0.671008 -0.716682 0.6974 1057.58 1218.19)" stroke="#122864" stroke-width="12.6944"/>
<rect x="0.495363" y="27.3681" width="263.406" height="266.019" transform="matrix(0.741451 0.671007 -0.716682 0.6974 1072.65 1635.69)" stroke="#122864" stroke-width="40"/>
<rect x="0.495362" y="27.3681" width="131.073" height="136.349" transform="matrix(0.741451 0.671007 -0.716682 0.6974 1078.49 1729.21)" stroke="#122864" stroke-width="40"/>
<rect x="0.157209" y="8.68559" width="13.7981" height="12.6944" transform="matrix(0.74145 0.671008 -0.716682 0.6974 1064.52 1819.46)" stroke="#122864" stroke-width="12.6944"/>
<rect x="0.495363" y="27.3681" width="263.406" height="266.019" transform="matrix(0.741451 0.671007 -0.716682 0.6974 1478.83 415.472)" stroke="#122864" stroke-width="40"/>
<rect x="0.495362" y="27.3681" width="131.073" height="136.349" transform="matrix(0.741451 0.671008 -0.716682 0.6974 1484.68 508.991)" stroke="#122864" stroke-width="40"/>
<rect x="0.495362" y="27.3681" width="131.073" height="136.349" transform="matrix(0.741451 0.671008 -0.716682 0.6974 1278.2 216.076)" stroke="#122864" stroke-width="40"/>
<rect x="0.157209" y="8.68559" width="13.7981" height="12.6944" transform="matrix(0.74145 0.671008 -0.716682 0.6974 1470.7 599.235)" stroke="#122864" stroke-width="12.6944"/>
<rect x="0.190939" y="10.5491" width="15.4181" height="15.7492" transform="matrix(0.74145 0.671008 -0.716682 0.6974 1266.81 308.225)" stroke="#122864" stroke-width="15.4181"/>
<rect x="0.495362" y="27.3681" width="263.406" height="266.019" transform="matrix(0.741451 0.671008 -0.716682 0.6974 1478.83 1029.69)" stroke="#122864" stroke-width="40"/>
<rect x="0.495362" y="27.3681" width="131.073" height="136.349" transform="matrix(0.741451 0.671007 -0.716682 0.6974 1484.68 1123.21)" stroke="#122864" stroke-width="40"/>
<rect x="0.495363" y="27.3681" width="131.073" height="136.349" transform="matrix(0.741451 0.671008 -0.716682 0.6974 1278.2 830.291)" stroke="#122864" stroke-width="40"/>
<rect x="0.157209" y="8.68559" width="13.7981" height="12.6944" transform="matrix(0.74145 0.671008 -0.716682 0.6974 1470.7 1213.45)" stroke="#122864" stroke-width="12.6944"/>
<rect x="0.190939" y="10.5491" width="15.4181" height="15.7492" transform="matrix(0.741451 0.671007 -0.716682 0.6974 1266.81 922.44)" stroke="#122864" stroke-width="15.4181"/>
<rect x="0.495363" y="27.3681" width="263.406" height="266.019" transform="matrix(0.741451 0.671007 -0.716682 0.6974 1485.78 1630.95)" stroke="#122864" stroke-width="40"/>
<rect x="0.495363" y="27.3681" width="131.073" height="136.349" transform="matrix(0.741451 0.671007 -0.716682 0.6974 1491.62 1724.47)" stroke="#122864" stroke-width="40"/>
<rect x="0.495363" y="27.3681" width="131.073" height="136.349" transform="matrix(0.741451 0.671007 -0.716682 0.6974 1285.15 1431.56)" stroke="#122864" stroke-width="40"/>
<rect x="0.157209" y="8.68559" width="13.7981" height="12.6944" transform="matrix(0.74145 0.671008 -0.716682 0.6974 1477.65 1814.72)" stroke="#122864" stroke-width="12.6944"/>
<rect x="0.190939" y="10.5491" width="15.4181" height="15.7492" transform="matrix(0.741451 0.671007 -0.716682 0.6974 1273.75 1523.7)" stroke="#122864" stroke-width="15.4181"/>
<line y1="-20" x2="211.338" y2="-20" transform="matrix(-0.716172 -0.697924 0.741939 -0.670468 1414.41 257.293)" stroke="#122864" stroke-width="40"/>
<line y1="-20" x2="211.338" y2="-20" transform="matrix(0.716172 -0.697924 -0.741939 -0.670467 1236.86 522.243)" stroke="#122864" stroke-width="40"/>
<line y1="-20" x2="317.464" y2="-20" transform="matrix(0.733479 -0.679712 0.724889 0.688866 1050.58 347.431)" stroke="#122864" stroke-width="40"/>
<line y1="-20" x2="317.464" y2="-20" transform="matrix(0.733479 0.679712 0.724889 -0.688866 1050.58 306.459)" stroke="#122864" stroke-width="40"/>
<line y1="-20" x2="211.338" y2="-20" transform="matrix(-0.716172 -0.697924 0.741939 -0.670468 1414.41 871.508)" stroke="#122864" stroke-width="40"/>
<line y1="-20" x2="211.338" y2="-20" transform="matrix(0.716172 -0.697924 -0.741939 -0.670467 1236.86 1136.46)" stroke="#122864" stroke-width="40"/>
<line y1="-20" x2="317.464" y2="-20" transform="matrix(0.733479 -0.679712 0.724889 0.688866 1050.58 961.646)" stroke="#122864" stroke-width="40"/>
<line y1="-20" x2="317.464" y2="-20" transform="matrix(0.733479 0.679712 0.724889 -0.688866 1050.58 920.674)" stroke="#122864" stroke-width="40"/>
<line y1="-20" x2="211.338" y2="-20" transform="matrix(-0.716172 -0.697923 0.741939 -0.670467 1421.36 1472.77)" stroke="#122864" stroke-width="40"/>
<line y1="-20" x2="211.338" y2="-20" transform="matrix(0.716172 -0.697924 -0.741939 -0.670468 1243.81 1737.72)" stroke="#122864" stroke-width="40"/>
<line y1="-20" x2="317.464" y2="-20" transform="matrix(0.733479 -0.679712 0.724889 0.688866 1057.52 1562.91)" stroke="#122864" stroke-width="40"/>
<line y1="-20" x2="317.464" y2="-20" transform="matrix(0.733479 0.679712 0.724889 -0.688866 1057.52 1521.94)" stroke="#122864" stroke-width="40"/>
<line y1="-20" x2="311.116" y2="-20" transform="matrix(-0.720379 -0.693581 0.737888 -0.674923 1487.18 221.784)" stroke="#122864" stroke-width="40"/>
<line y1="-20" x2="464.898" y2="-20" transform="matrix(0.726262 -0.687418 0.732124 0.681172 945.794 347.431)" stroke="#122864" stroke-width="40"/>
<line y1="-20" x2="417.782" y2="-20" transform="matrix(0.731529 0.68181 -0.726861 0.686784 931.241 333.773)" stroke="#122864" stroke-width="40"/>
<line y1="-20" x2="311.116" y2="-20" transform="matrix(-0.720379 -0.693581 0.737888 -0.674923 1487.18 835.999)" stroke="#122864" stroke-width="40"/>
<line y1="-20" x2="464.898" y2="-20" transform="matrix(0.726262 -0.687418 0.732124 0.681172 945.794 961.646)" stroke="#122864" stroke-width="40"/>
<line y1="-20" x2="417.782" y2="-20" transform="matrix(0.731529 0.68181 -0.726861 0.686784 931.241 947.988)" stroke="#122864" stroke-width="40"/>
<line y1="-20" x2="311.116" y2="-20" transform="matrix(-0.720379 -0.693581 0.737888 -0.674923 1494.12 1437.26)" stroke="#122864" stroke-width="40"/>
<line y1="-20" x2="464.898" y2="-20" transform="matrix(0.726262 -0.687418 0.732124 0.681172 952.741 1562.91)" stroke="#122864" stroke-width="40"/>
<line y1="-20" x2="417.782" y2="-20" transform="matrix(0.731529 0.68181 -0.726861 0.686784 938.187 1549.25)" stroke="#122864" stroke-width="40"/>
</g>
</svg>
