<svg width="239" height="272" viewBox="0 0 239 272" fill="none" xmlns="http://www.w3.org/2000/svg">
<path d="M5.60032 266.765H13.8569C15.5881 266.765 16.2526 265.628 16.2526 264.315C16.2526 262.682 15.2422 261.807 13.2795 261.807H5.60032V266.765ZM5.60032 258.191H13.3948C14.693 258.191 15.5019 257.491 15.5019 255.945C15.5019 254.633 14.9245 253.7 12.615 253.7H5.60032V258.191ZM0 249.908H15.4728C18.475 249.908 21.2756 251.308 21.2756 255.158C21.2756 256.762 20.4667 258.716 18.5331 259.328V259.386C20.9288 259.795 22.1989 262.187 22.1989 264.432C22.1989 267.203 20.9288 270.731 14.693 270.731H0V249.908Z" fill="#F1F3F2"/>
<path d="M30.8346 259.124H38.2542C39.4952 259.124 40.9386 258.424 40.9386 256.47C40.9386 254.4 39.3218 253.875 37.9646 253.875H30.8346V259.124ZM25.2343 249.907H40.216C45.9325 249.907 46.8848 253.437 46.8848 255.566C46.8848 258.103 45.8744 259.737 43.5368 260.582V260.64C45.9897 261.019 46.3655 264.169 46.3655 266.211C46.3655 267.231 46.4518 269.681 47.4332 270.731H41.3136C40.7943 269.768 40.7652 268.923 40.7652 266.736C40.7652 263.819 39.5234 263.09 37.7913 263.09H30.8346V270.731H25.2343V249.907Z" fill="#F1F3F2"/>
<path d="M61.7851 254.4L58.5524 262.653H65.0188L61.7851 254.4ZM66.5194 266.445H57.0509L55.3769 270.732H49.3435L58.408 249.907H65.1631L74.2268 270.732H68.1934L66.5194 266.445Z" fill="#F1F3F2"/>
<path d="M90.4549 255.945C90.1081 253.233 87.539 252.942 85.2876 252.942C82.9781 252.942 81.4766 253.991 81.4766 255.391C81.4766 256.5 82.4008 257.112 83.8442 257.345L90.8589 258.482C94.6118 259.094 97.4696 260.523 97.4696 264.315C97.4696 268.194 94.8714 271.314 86.7601 271.314C81.7363 271.314 75.2127 270.673 75.1555 264.169H81.4484C81.5057 267.028 84.3353 267.524 86.7601 267.524C89.3864 267.524 91.1766 266.736 91.1766 264.927C91.1766 263.324 89.9057 262.886 87.6834 262.537L82.5741 261.749C78.9946 261.194 75.5304 260.115 75.5304 255.858C75.5304 251.22 79.2833 249.324 85.7497 249.324C89.9928 249.324 96.2858 250.054 96.6616 255.945H90.4549Z" fill="#F1F3F2"/>
<path d="M100.765 249.907H106.365V270.731H100.765V249.907Z" fill="#F1F3F2"/>
<path d="M111.014 249.908H116.615V266.591H129.172V270.731H111.014V249.908Z" fill="#F1F3F2"/>
<path d="M132.581 249.908H151.835V253.875H138.182V258.191H151.143V261.982H138.182V266.765H151.952V270.731H132.581V249.908Z" fill="#F1F3F2"/>
<path d="M155.766 249.907H161.367V270.731H155.766V249.907Z" fill="#F1F3F2"/>
<path d="M171.615 259.124H179.035C180.276 259.124 181.719 258.424 181.719 256.47C181.719 254.4 180.103 253.875 178.746 253.875H171.615V259.124ZM166.016 249.907H180.998C186.713 249.907 187.665 253.437 187.665 255.566C187.665 258.103 186.655 259.737 184.317 260.582V260.64C186.771 261.019 187.147 264.169 187.147 266.211C187.147 267.231 187.232 269.681 188.215 270.731H182.095C181.575 269.768 181.546 268.923 181.546 266.736C181.546 263.819 180.305 263.09 178.573 263.09H171.615V270.731H166.016V249.907Z" fill="#F1F3F2"/>
<path d="M201.989 254.4L198.756 262.653H205.222L201.989 254.4ZM194.888 248.42C195.552 246.087 196.793 244.396 199.016 244.396C200.517 244.396 203.577 245.679 205.309 245.679C206.089 245.679 206.608 245.358 206.723 244.542H209.09C208.802 246.758 207.82 248.538 205.338 248.538C203.692 248.538 199.882 247.079 198.784 247.079C198.035 247.079 197.601 247.721 197.371 248.42H194.888ZM206.723 266.445H197.255L195.581 270.732H189.547L198.612 249.907H205.366L214.431 270.732H208.397L206.723 266.445Z" fill="#F1F3F2"/>
<path d="M226.068 267.349C231.148 267.349 232.938 263.558 232.938 260.32C232.938 257.082 231.148 253.291 226.068 253.291C220.987 253.291 219.198 257.082 219.198 260.32C219.198 263.558 220.987 267.349 226.068 267.349ZM226.068 249.324C237.153 249.324 238.885 255.974 238.885 260.32C238.885 264.665 237.153 271.315 226.068 271.315C214.983 271.315 213.25 264.665 213.25 260.32C213.25 255.974 214.983 249.324 226.068 249.324Z" fill="#F1F3F2"/>
<path d="M72.6334 127.17C85.9436 142.91 97.831 160.35 97.831 180.839C97.831 193.384 93.3802 209.286 89.9246 219.735C99.1932 222.367 109.009 223.804 119.177 223.804C129.316 223.804 139.1 222.373 148.342 219.759C144.888 209.309 140.422 193.396 140.422 180.839C140.422 160.35 152.315 142.91 165.621 127.17L119.127 46.2509L72.6334 127.17ZM86.9113 125.79C86.9113 108.816 101.334 95.0567 119.127 95.0567C136.919 95.0567 151.338 108.816 151.338 125.79C151.338 142.759 136.919 156.513 119.127 156.513C101.334 156.513 86.9113 142.759 86.9113 125.79Z" fill="#C7FF00"/>
<path d="M116.453 38.3081C71.2958 40.362 50.6872 27.6686 42.0797 19.2412C57.5422 48.6249 69.0111 77.1971 76.1778 104.273C76.9559 107.208 77.681 110.131 78.36 113.033L117.285 45.2894L119.127 42.0826L120.972 45.2894L160.752 114.518C167.036 91.0376 177.656 57.3334 195.544 6.9128C187.908 16.564 166.439 36.0415 116.453 38.3081Z" fill="#C7FF00"/>
<path d="M142.524 180.839C142.524 186.806 143.557 193.563 145.03 200.176C148.641 199.024 152.148 197.638 155.516 196.038C153.479 186.274 151.816 175.719 151.816 167.295C151.816 162.016 152.112 155.803 153.543 146.808C147.159 157.058 142.524 168.417 142.524 180.839Z" fill="#C7FF00"/>
<path d="M85.1646 170.557C85.0612 180.451 84.231 188.982 83.0823 196.154C86.3501 197.693 89.7417 199.03 93.2341 200.147C94.7006 193.546 95.7289 186.796 95.7289 180.839C95.7289 172.218 94.0634 161.478 83.9398 145.701C84.8366 154.21 85.2466 162.513 85.1646 170.557Z" fill="#C7FF00"/>
<path d="M200.669 1.46892C181.07 56.3737 169.496 92.7706 162.882 118.232L167.464 126.204L168.142 127.382L167.259 128.426C164.037 132.232 160.803 136.256 157.778 140.482C155.594 151.923 154.831 160.308 154.831 167.295C154.831 175.21 156.394 185.231 158.332 194.652C161.136 193.186 163.827 191.559 166.416 189.805C165.031 184.015 163.995 178.148 163.708 172.826C163.196 166.359 163.477 161.073 163.985 157.125C165.346 146.047 170.316 123.785 186.793 82.1768L186.787 82.1702L187.418 80.5815C189.725 74.7986 192.207 68.7542 194.795 62.6129L196.992 57.4133L197.006 57.4304C204.077 40.9006 212.621 22.0048 222.953 0.406523L200.669 1.46892Z" fill="#C7FF00"/>
<path d="M12.7422 14.4303C12.7422 14.4303 26.0892 32.135 40.3611 58.5156L40.3774 58.4985L41.6141 60.8588C44.9237 67.0775 48.265 73.7395 51.4798 80.7461L51.9145 81.6863L51.9094 81.6928C66.8083 114.415 78.8809 154.344 72.6674 190.295C75.0939 191.902 77.6058 193.399 80.2159 194.756C81.2921 187.826 82.0616 179.669 82.1487 170.283C82.2367 160.634 81.6004 150.615 80.2629 140.285C77.6331 136.594 74.5729 132.658 70.9942 128.426L70.1102 127.382L70.7884 126.204L76.1436 116.889C75.2604 112.888 74.2816 108.861 73.2021 104.793C65.5416 75.9254 52.9523 45.3204 35.8011 13.8388C35.661 13.5976 35.3331 13.0094 34.9581 12.3112L12.7422 14.4303Z" fill="#C7FF00"/>
<path d="M89.9739 120.253C86.7728 135.606 97.2252 150.537 113.325 153.594C129.424 156.65 145.076 146.678 148.279 131.322C151.483 115.968 141.024 101.038 124.928 97.9799C122.971 97.6084 121.02 97.4299 119.098 97.4291C105.205 97.4283 92.7907 106.765 89.9739 120.253Z" fill="#C7FF00"/>
<path d="M141.113 133.993C141.076 133.692 141.136 133.398 141.288 133.162C142.054 131.942 143.892 128.558 144.451 123.541C144.456 123.475 144.568 123.288 144.657 123.266C144.913 123.181 145.14 123.107 145.337 123.03C145.632 125.6 145.517 128.176 144.991 130.699C144.251 134.26 142.688 137.654 140.449 140.58C141.403 137.774 141.238 135.093 141.113 133.993ZM130.495 147.52C130.392 147.568 130.216 147.597 130.017 147.544C128.361 146.934 126.073 144.999 125.167 144.188C125.088 144.121 125.112 143.999 125.125 143.972C128.864 139.869 130.854 136.039 131.375 134.965C131.428 134.848 131.506 134.8 131.636 134.8C132.712 134.793 136.505 134.712 140.376 133.87C140.385 133.866 140.392 133.866 140.397 133.866L140.416 133.892C140.87 137.493 139.898 140.243 139.453 141.263C139.366 141.477 139.19 141.728 139.143 141.78C138.489 142.52 135.947 145.131 130.495 147.52ZM130.193 148.492C130.321 148.346 130.517 148.205 130.734 148.113C130.862 148.05 132.926 147.14 135.209 145.704C133.608 146.881 131.858 147.883 130.017 148.689C130.075 148.623 130.136 148.559 130.193 148.492ZM111.977 144.313C112.011 144.282 112.12 144.247 112.417 144.309L112.499 144.325C113.434 144.502 114.943 144.731 116.851 144.839C119.331 144.974 121.787 144.852 124.11 144.48C124.201 144.463 124.281 144.463 124.343 144.478C124.405 144.487 124.428 144.51 124.444 144.52L124.486 144.564C126.77 146.731 128.816 147.784 129.572 148.113C129.572 148.123 129.569 148.144 129.56 148.158C129.139 148.62 128.648 149.049 128.108 149.436C125.214 150.44 122.194 150.948 119.13 150.948C117.412 150.948 115.677 150.785 113.981 150.464C112.073 150.098 110.194 149.53 108.397 148.764C107.983 148.445 107.625 148.113 107.327 147.77C107.303 147.744 107.293 147.726 107.282 147.722C108.728 147.14 111.239 144.966 111.977 144.313ZM96.7964 133.217C97.25 133.375 97.8453 133.527 98.6105 133.672C101 134.128 104.193 134.34 105.13 134.393C105.15 134.396 105.18 134.412 105.219 134.485C106.024 136.301 108.356 140.593 111.419 143.846C111.422 143.857 111.413 143.881 111.375 143.926C108.603 146.376 107.273 147.018 106.836 147.175C106.819 147.183 106.694 147.202 106.559 147.173C106.531 147.167 106.501 147.161 106.484 147.154C103.468 146.149 99.8831 142.809 98.4918 141.432C98.2757 141.169 98.0613 140.903 97.8564 140.634C97.1919 138.742 96.8024 137.024 96.6871 135.529C96.5923 134.335 96.7076 133.585 96.7964 133.217ZM94.5826 128.881C95.2351 130.792 95.9526 132.31 96.1524 132.722C96.1661 132.756 96.1738 132.889 96.1601 132.949C95.7903 135.129 96.1798 137.322 96.606 138.855C93.4689 133.934 92.186 128.167 92.9846 122.468C93.1332 122.523 93.2622 122.559 93.3493 122.575C93.3262 124.325 93.7464 126.443 94.5826 128.881ZM98.8095 112.552C98.8036 112.593 98.7532 112.759 98.7361 112.787C95.2326 116.707 93.8404 120.744 93.4689 121.971C93.3296 121.922 93.2041 121.87 93.0862 121.822C93.14 121.505 93.1947 121.196 93.2588 120.876C94.153 116.614 96.1772 112.652 99.1452 109.378C98.8676 110.369 98.7557 111.435 98.8095 112.552ZM118.707 101.18L118.426 106.084V106.091C118.42 106.175 118.386 106.381 118.233 106.443C114.9 107.789 111.362 109.904 108.291 112.394C108.19 112.462 108.142 112.49 108.028 112.49H107.977C107.08 112.367 104.748 112.08 102.527 112.08C101.349 112.08 100.356 112.157 99.5851 112.323C99.5654 111.735 99.5774 109.823 100.337 108.154C104.592 104.04 110.228 101.425 116.182 100.785C116.789 100.821 117.387 100.895 117.958 101.001C118.186 101.047 118.415 101.095 118.65 101.154C118.687 101.163 118.707 101.172 118.707 101.18ZM138.432 112.542C138.423 112.688 138.365 112.739 138.334 112.755C137.071 112.545 135.66 112.439 134.138 112.439C132.552 112.439 131.224 112.552 130.421 112.622C130.162 112.642 129.976 112.658 129.868 112.665H129.796C129.683 112.665 129.576 112.655 129.483 112.635C129.168 112.577 128.995 112.449 128.963 112.426L128.957 112.42C127.182 110.847 125.251 109.456 123.219 108.283C121.585 107.344 120.288 106.775 119.702 106.517C119.564 106.458 119.462 106.417 119.429 106.397C119.171 106.258 119.152 106.052 119.152 106.052C119.158 105.849 119.391 101.889 119.458 101.425C119.503 101.102 119.749 101.04 119.757 101.037C120.223 100.947 120.996 100.828 121.991 100.782C122.813 100.869 123.557 100.976 124.276 101.115C129.499 102.106 134.232 104.553 137.95 108.185C138.185 108.765 138.344 109.43 138.423 110.149C138.554 111.277 138.465 112.249 138.432 112.542ZM144.517 122.73C144.498 122.736 144.481 122.742 144.454 122.742C144.44 122.739 144.423 122.794 144.398 122.691C144.02 121.416 142.553 116.982 139.315 113.391C139.209 113.272 139.031 112.864 139.083 112.561C139.258 111.4 139.214 110.279 138.956 109.219C142.389 112.962 144.563 117.518 145.26 122.448C145.046 122.548 144.795 122.642 144.517 122.73ZM103.089 112.807C104.675 112.807 106.271 112.939 107.803 113.191L107.854 113.207C107.871 113.211 107.913 113.22 107.926 113.242C108.157 114.183 109.382 119.12 111.287 123.714C111.315 123.866 111.301 123.905 111.131 124.138C110.09 125.574 107.431 129.355 105.286 133.46C105.228 133.55 105.107 133.653 104.639 133.653C104.541 133.653 104.429 133.65 104.303 133.644C102.764 133.527 100.547 133.32 98.7327 132.975C97.9606 132.83 97.3311 132.672 96.8528 132.503C96.8058 132.485 96.6709 132.378 96.6307 132.297C94.2461 127.334 93.9796 123.879 93.9566 122.94C93.9523 122.771 93.9907 122.327 94.0497 122.126C94.3956 121.006 95.7766 117.059 99.1452 113.262C99.1794 113.227 99.3861 113.079 99.8216 113.017C100.151 112.969 101.356 112.807 103.089 112.807ZM140.751 132.788C140.623 132.991 140.32 133.159 140.245 133.175C136.584 133.97 133.079 134.073 131.695 134.082C131.529 134.047 131.347 133.87 131.312 133.802C129.049 129.503 126.3 125.4 125.51 124.24C125.431 124.121 125.454 123.876 125.58 123.588C125.599 123.536 127.841 118.496 129.322 113.66C129.357 113.543 129.684 113.401 129.915 113.372C131.546 113.191 133.079 113.101 134.476 113.101C136.412 113.101 137.62 113.275 138.164 113.382L138.195 113.214L138.229 113.395C138.423 113.43 138.712 113.64 138.804 113.737C141.946 117.178 143.385 121.453 143.75 122.684C143.829 122.917 143.82 123.547 143.791 123.796C143.195 128.47 141.468 131.641 140.751 132.788ZM111.771 124.48C111.876 124.332 112.046 124.25 112.249 124.248H113.123C114.861 124.248 120.83 124.261 124.503 124.403C124.54 124.403 124.582 124.405 124.631 124.415C124.752 124.438 124.833 124.489 124.902 124.583C127.078 127.696 129.952 132.807 130.694 134.218C130.782 134.38 130.743 134.664 130.717 134.726C128.772 138.962 125.468 142.616 124.5 143.637C124.398 143.744 124.204 143.827 124.161 143.838C122.42 144.109 120.617 144.247 118.799 144.247C115.901 144.247 113.639 143.899 112.554 143.695L112.479 143.68C112.226 143.63 111.921 143.425 111.867 143.367C108.291 139.682 106.063 134.748 105.782 134.089C107.534 130.376 111.074 125.438 111.771 124.48ZM119.273 107.101C123.737 109.029 127.447 112.103 128.477 112.994C128.595 113.101 128.622 113.44 128.583 113.563C127.336 117.689 125.402 122.168 124.842 123.443C124.773 123.595 124.503 123.702 124.376 123.702C120.702 123.566 114.791 123.553 113.068 123.553H112.336C112.326 123.553 112.307 123.549 112.297 123.547C112.073 123.504 111.876 123.285 111.853 123.214C110.255 119.291 109.137 115.129 108.732 113.527C108.65 113.191 108.911 112.759 109.009 112.681C113.213 109.333 116.961 107.653 118.373 107.086C118.541 107.017 118.853 107.015 119.11 107.059C119.181 107.076 119.242 107.092 119.273 107.101ZM142.149 111.118C138.035 105.254 131.785 101.267 124.533 99.8908C122.74 99.5454 120.912 99.3743 119.096 99.3743C105.953 99.3743 94.5459 108.315 91.9725 120.634C88.9968 134.916 98.7532 148.846 113.728 151.69C115.519 152.027 117.343 152.201 119.155 152.201H119.158C132.308 152.201 143.714 143.259 146.278 130.945C147.724 124.024 146.256 116.985 142.149 111.118Z" fill="#1E1E1E"/>
<path d="M190.694 81.7702C199.413 94.5312 204.501 109.765 204.501 126.137C204.501 171.084 166.299 207.525 119.177 207.525C72.0559 207.525 33.8581 171.084 33.8581 126.137C33.8581 109.59 39.0476 94.211 47.9404 81.3661C45.2381 75.5245 42.4554 69.9225 39.6719 64.6203C25.3743 81.415 16.7898 102.817 16.7898 126.137C16.7898 180.076 62.6335 223.804 119.177 223.804C175.727 223.804 221.568 180.076 221.568 126.137C221.568 102.464 212.734 80.7656 198.046 63.8626C195.375 70.1938 192.931 76.1543 190.694 81.7702Z" fill="#C7FF00"/>
<path d="M37.8868 126.137C37.8868 151.134 50.3028 173.352 69.5533 187.534C69.848 185.586 70.088 183.6 70.2767 181.59C53.7209 168.293 43.1976 148.392 43.1976 126.139C43.1976 113.599 46.5422 101.8 52.4184 91.515C52.1195 90.8086 51.8325 90.1104 51.5242 89.4C50.9784 88.1274 50.4241 86.8654 49.8689 85.6099C42.2734 97.4087 37.8868 111.283 37.8868 126.137Z" fill="#C7FF00"/>
<path d="M186.524 92.452C186.51 92.4764 186.498 92.5033 186.494 92.5294C192.017 102.574 195.161 114.005 195.161 126.139C195.161 148.312 184.702 168.153 168.254 181.446C168.572 183.319 168.955 185.21 169.386 187.106C188.306 172.909 200.473 150.882 200.473 126.137C200.473 111.557 196.244 97.9245 188.912 86.2715C188.089 88.3865 187.29 90.4396 186.524 92.452Z" fill="#C7FF00"/>
<path d="M95.6821 211.01C95.876 209.832 94.834 209.417 93.8876 209.16C92.9182 208.898 92.1564 209.168 91.9813 209.756C91.8429 210.22 92.1547 210.583 92.7312 210.845L95.5343 212.121C97.0341 212.804 98.0548 213.729 97.5799 215.32C97.0948 216.949 95.6146 217.963 92.2093 217.04C90.0997 216.469 87.4417 215.458 88.2292 212.721L90.8718 213.437C90.5387 214.643 91.6653 215.173 92.6825 215.449C93.786 215.748 94.6358 215.621 94.8613 214.862C95.062 214.189 94.5837 213.86 93.6946 213.46L91.6473 212.549C90.2133 211.909 88.8946 211.062 89.4267 209.275C90.0066 207.328 91.819 206.96 94.5342 207.695C96.3158 208.178 98.8662 209.199 98.2871 211.715L95.6821 211.01Z" fill="#1E1E1E"/>
<path d="M104.551 207.669L107.223 208.094L105.121 209.592L103.133 209.275L104.551 207.669ZM100.37 209.442L108.657 210.763L108.357 212.472L102.481 211.534L102.155 213.391L107.733 214.282L107.447 215.914L101.869 215.024L101.507 217.084L107.433 218.029L107.133 219.736L98.7981 218.407L100.37 209.442Z" fill="#1E1E1E"/>
<path d="M112.163 215.044L115.397 215.205C115.937 215.233 116.584 214.959 116.63 214.107C116.679 213.205 115.987 212.941 115.396 212.911L112.288 212.756L112.163 215.044ZM109.941 210.906L116.471 211.232C118.963 211.357 119.295 212.915 119.244 213.842C119.183 214.949 118.704 215.639 117.664 215.956L117.663 215.981C118.724 216.2 118.812 217.581 118.764 218.471C118.74 218.916 118.719 219.985 119.122 220.464L116.454 220.331C116.251 219.9 116.259 219.532 116.311 218.578C116.38 217.307 115.856 216.962 115.1 216.925L112.068 216.773L111.887 220.103L109.446 219.981L109.941 210.906Z" fill="#1E1E1E"/>
<path d="M120.659 211.246L123.101 211.177L123.38 220.262L120.936 220.329L120.659 211.246Z" fill="#1E1E1E"/>
<path d="M124.83 211.175L133.187 210.316L133.381 212.037L127.455 212.646L127.667 214.517L133.292 213.939L133.478 215.584L127.854 216.161L128.089 218.236L134.065 217.622L134.258 219.342L125.852 220.205L124.83 211.175Z" fill="#1E1E1E"/>
<path d="M143.92 209.976L143.585 213.808L146.302 213.079L143.92 209.976ZM147.403 214.502L143.423 215.57L143.25 217.559L140.714 218.24L141.945 208.47L144.785 207.709L151.175 215.433L148.637 216.113L147.403 214.502Z" fill="#1E1E1E"/>
</svg>
